<mxfile host="app.diagrams.net" modified="2022-03-21T13:23:42.808Z" agent="5.0 (Windows)" etag="QwP2EqGOPevDtAOYBGQm" version="17.1.3" type="github">
  <diagram name="Page-1" id="c7558073-3199-34d8-9f00-42111426c3f3">
    <mxGraphModel dx="1864" dy="564" grid="1" gridSize="10" guides="1" tooltips="1" connect="1" arrows="1" fold="1" page="1" pageScale="1" pageWidth="826" pageHeight="1169" background="none" math="0" shadow="0">
      <root>
        <mxCell id="0" />
        <mxCell id="1" parent="0" />
        <mxCell id="0HOrwDNYIVravYK2uu_f-97" value="Biodiversity Literature" style="rounded=0;whiteSpace=wrap;sketch=0;html=1;fillColor=#f8cecc;strokeColor=#b85450;" parent="1" vertex="1">
          <mxGeometry x="230" y="20" width="120" height="60" as="geometry" />
        </mxCell>
        <mxCell id="0HOrwDNYIVravYK2uu_f-100" value="" style="endArrow=classic;html=1;rounded=0;exitX=1;exitY=0.5;exitDx=0;exitDy=0;entryX=0;entryY=0.5;entryDx=0;entryDy=0;" parent="1" source="0HOrwDNYIVravYK2uu_f-97" target="0HOrwDNYIVravYK2uu_f-98" edge="1">
          <mxGeometry width="50" height="50" relative="1" as="geometry">
            <mxPoint x="390" y="360" as="sourcePoint" />
            <mxPoint x="250" y="50" as="targetPoint" />
          </mxGeometry>
        </mxCell>
        <mxCell id="0HOrwDNYIVravYK2uu_f-98" value="Swiss Institute of Bioinformatics Literature Service&lt;br&gt;&lt;div&gt;(SIBiLS) Articles&lt;/div&gt;" style="rounded=0;whiteSpace=wrap;html=1;sketch=0;fillColor=#f8cecc;strokeColor=#b85450;" parent="1" vertex="1">
          <mxGeometry x="420" y="20" width="120" height="60" as="geometry" />
        </mxCell>
        <mxCell id="0HOrwDNYIVravYK2uu_f-103" value="Plazi TreatmentBank" style="rounded=0;whiteSpace=wrap;html=1;sketch=0;fillColor=#e1d5e7;strokeColor=#9673a6;" parent="1" vertex="1">
          <mxGeometry x="420" y="240" width="120" height="60" as="geometry" />
        </mxCell>
        <mxCell id="0HOrwDNYIVravYK2uu_f-104" value="" style="endArrow=classic;html=1;rounded=0;entryX=0.25;entryY=0;entryDx=0;entryDy=0;exitX=0.25;exitY=1;exitDx=0;exitDy=0;" parent="1" source="0HOrwDNYIVravYK2uu_f-98" target="0HOrwDNYIVravYK2uu_f-103" edge="1">
          <mxGeometry width="50" height="50" relative="1" as="geometry">
            <mxPoint x="390" y="360" as="sourcePoint" />
            <mxPoint x="440" y="310" as="targetPoint" />
          </mxGeometry>
        </mxCell>
        <mxCell id="0HOrwDNYIVravYK2uu_f-105" value="&lt;div&gt;Global Biodiversity Information Facility (GBIF)&lt;/div&gt;" style="rounded=0;whiteSpace=wrap;html=1;sketch=0;fillColor=#f8cecc;strokeColor=#b85450;" parent="1" vertex="1">
          <mxGeometry x="60" y="350" width="120" height="60" as="geometry" />
        </mxCell>
        <mxCell id="0HOrwDNYIVravYK2uu_f-106" value="Decoding article using TreatmentBank" style="ellipse;whiteSpace=wrap;html=1;rounded=0;sketch=0;fillColor=#fff2cc;strokeColor=#d6b656;" parent="1" vertex="1">
          <mxGeometry x="760" y="110" width="120" height="80" as="geometry" />
        </mxCell>
        <mxCell id="0HOrwDNYIVravYK2uu_f-107" value="Annotate figures, material and citations" style="ellipse;whiteSpace=wrap;html=1;rounded=0;sketch=0;fillColor=#fff2cc;strokeColor=#d6b656;" parent="1" vertex="1">
          <mxGeometry x="760" y="230" width="120" height="80" as="geometry" />
        </mxCell>
        <mxCell id="0HOrwDNYIVravYK2uu_f-108" value="Quality Control by specialists" style="ellipse;whiteSpace=wrap;html=1;rounded=0;sketch=0;fillColor=#ffe6cc;strokeColor=#d79b00;" parent="1" vertex="1">
          <mxGeometry x="760" y="350" width="120" height="80" as="geometry" />
        </mxCell>
        <mxCell id="0HOrwDNYIVravYK2uu_f-109" value="" style="endArrow=classic;html=1;rounded=0;exitX=1;exitY=0;exitDx=0;exitDy=0;entryX=0;entryY=0.5;entryDx=0;entryDy=0;" parent="1" source="0HOrwDNYIVravYK2uu_f-103" target="0HOrwDNYIVravYK2uu_f-106" edge="1">
          <mxGeometry width="50" height="50" relative="1" as="geometry">
            <mxPoint x="390" y="360" as="sourcePoint" />
            <mxPoint x="440" y="310" as="targetPoint" />
          </mxGeometry>
        </mxCell>
        <mxCell id="0HOrwDNYIVravYK2uu_f-110" value="" style="endArrow=classic;html=1;rounded=0;entryX=0.5;entryY=0;entryDx=0;entryDy=0;exitX=0.5;exitY=1;exitDx=0;exitDy=0;" parent="1" source="0HOrwDNYIVravYK2uu_f-106" target="0HOrwDNYIVravYK2uu_f-107" edge="1">
          <mxGeometry width="50" height="50" relative="1" as="geometry">
            <mxPoint x="40" y="520" as="sourcePoint" />
            <mxPoint x="90" y="470" as="targetPoint" />
          </mxGeometry>
        </mxCell>
        <mxCell id="0HOrwDNYIVravYK2uu_f-111" value="" style="endArrow=classic;html=1;rounded=0;entryX=0.5;entryY=0;entryDx=0;entryDy=0;exitX=0.5;exitY=1;exitDx=0;exitDy=0;" parent="1" source="0HOrwDNYIVravYK2uu_f-107" target="0HOrwDNYIVravYK2uu_f-108" edge="1">
          <mxGeometry width="50" height="50" relative="1" as="geometry">
            <mxPoint x="190" y="480" as="sourcePoint" />
            <mxPoint x="240" y="430" as="targetPoint" />
          </mxGeometry>
        </mxCell>
        <mxCell id="0HOrwDNYIVravYK2uu_f-112" value="" style="endArrow=classic;html=1;rounded=0;entryX=1;entryY=0.5;entryDx=0;entryDy=0;exitX=0;exitY=0.5;exitDx=0;exitDy=0;" parent="1" source="0HOrwDNYIVravYK2uu_f-107" target="0HOrwDNYIVravYK2uu_f-103" edge="1">
          <mxGeometry width="50" height="50" relative="1" as="geometry">
            <mxPoint x="390" y="360" as="sourcePoint" />
            <mxPoint x="440" y="310" as="targetPoint" />
          </mxGeometry>
        </mxCell>
        <mxCell id="0HOrwDNYIVravYK2uu_f-113" value="" style="endArrow=classic;html=1;rounded=0;entryX=1;entryY=1;entryDx=0;entryDy=0;exitX=0;exitY=0.5;exitDx=0;exitDy=0;" parent="1" source="0HOrwDNYIVravYK2uu_f-108" target="0HOrwDNYIVravYK2uu_f-103" edge="1">
          <mxGeometry width="50" height="50" relative="1" as="geometry">
            <mxPoint x="450" y="420" as="sourcePoint" />
            <mxPoint x="500" y="370" as="targetPoint" />
          </mxGeometry>
        </mxCell>
        <mxCell id="0HOrwDNYIVravYK2uu_f-116" value="" style="endArrow=classic;html=1;rounded=0;exitX=0.75;exitY=0;exitDx=0;exitDy=0;entryX=0.5;entryY=1;entryDx=0;entryDy=0;" parent="1" source="0HOrwDNYIVravYK2uu_f-103" target="0HOrwDNYIVravYK2uu_f-137" edge="1">
          <mxGeometry width="50" height="50" relative="1" as="geometry">
            <mxPoint x="390" y="290" as="sourcePoint" />
            <mxPoint x="510" y="200" as="targetPoint" />
          </mxGeometry>
        </mxCell>
        <mxCell id="0HOrwDNYIVravYK2uu_f-118" value="&lt;div&gt;Match Material citations and Occurences&lt;/div&gt;" style="ellipse;whiteSpace=wrap;html=1;rounded=0;sketch=0;fillColor=#fff2cc;strokeColor=#d6b656;" parent="1" vertex="1">
          <mxGeometry x="60" y="230" width="120" height="80" as="geometry" />
        </mxCell>
        <mxCell id="0HOrwDNYIVravYK2uu_f-120" value="&lt;div&gt;Quality Control by Specialist&lt;/div&gt;" style="ellipse;whiteSpace=wrap;html=1;rounded=0;sketch=0;fillColor=#ffe6cc;strokeColor=#d79b00;" parent="1" vertex="1">
          <mxGeometry x="210" y="150" width="120" height="80" as="geometry" />
        </mxCell>
        <mxCell id="0HOrwDNYIVravYK2uu_f-121" value="" style="endArrow=classic;html=1;rounded=0;exitX=0;exitY=0.5;exitDx=0;exitDy=0;entryX=1;entryY=0.5;entryDx=0;entryDy=0;" parent="1" source="0HOrwDNYIVravYK2uu_f-103" target="0HOrwDNYIVravYK2uu_f-118" edge="1">
          <mxGeometry width="50" height="50" relative="1" as="geometry">
            <mxPoint x="390" y="290" as="sourcePoint" />
            <mxPoint x="440" y="240" as="targetPoint" />
          </mxGeometry>
        </mxCell>
        <mxCell id="0HOrwDNYIVravYK2uu_f-122" value="" style="endArrow=classic;html=1;rounded=0;exitX=0.5;exitY=0;exitDx=0;exitDy=0;entryX=0.5;entryY=1;entryDx=0;entryDy=0;" parent="1" source="0HOrwDNYIVravYK2uu_f-105" target="0HOrwDNYIVravYK2uu_f-118" edge="1">
          <mxGeometry width="50" height="50" relative="1" as="geometry">
            <mxPoint x="390" y="290" as="sourcePoint" />
            <mxPoint x="440" y="240" as="targetPoint" />
          </mxGeometry>
        </mxCell>
        <mxCell id="0HOrwDNYIVravYK2uu_f-124" value="" style="endArrow=classic;html=1;rounded=0;exitX=1;exitY=1;exitDx=0;exitDy=0;entryX=0;entryY=0;entryDx=0;entryDy=0;" parent="1" source="0HOrwDNYIVravYK2uu_f-120" target="0HOrwDNYIVravYK2uu_f-103" edge="1">
          <mxGeometry width="50" height="50" relative="1" as="geometry">
            <mxPoint x="390" y="290" as="sourcePoint" />
            <mxPoint x="440" y="240" as="targetPoint" />
          </mxGeometry>
        </mxCell>
        <mxCell id="0HOrwDNYIVravYK2uu_f-128" value="Upload Treatments and material citations" style="ellipse;whiteSpace=wrap;html=1;rounded=0;sketch=0;fillColor=#fff2cc;strokeColor=#d6b656;" parent="1" vertex="1">
          <mxGeometry x="210" y="340" width="120" height="80" as="geometry" />
        </mxCell>
        <mxCell id="0HOrwDNYIVravYK2uu_f-129" value="" style="endArrow=classic;html=1;rounded=0;entryX=1;entryY=0.5;entryDx=0;entryDy=0;exitX=0;exitY=0.5;exitDx=0;exitDy=0;" parent="1" source="0HOrwDNYIVravYK2uu_f-128" target="0HOrwDNYIVravYK2uu_f-105" edge="1">
          <mxGeometry width="50" height="50" relative="1" as="geometry">
            <mxPoint x="210" y="370" as="sourcePoint" />
            <mxPoint x="260" y="320" as="targetPoint" />
          </mxGeometry>
        </mxCell>
        <mxCell id="0HOrwDNYIVravYK2uu_f-132" value="&lt;div&gt;GBIF-CH&lt;/div&gt;&lt;div&gt;occurrneces&lt;/div&gt;" style="rounded=0;whiteSpace=wrap;html=1;sketch=0;fillColor=#f8cecc;strokeColor=#b85450;" parent="1" vertex="1">
          <mxGeometry x="-110" y="350" width="120" height="60" as="geometry" />
        </mxCell>
        <mxCell id="0HOrwDNYIVravYK2uu_f-133" value="&lt;div&gt;Natural History Collection&lt;/div&gt;&lt;div&gt;occurrences &lt;br&gt;&lt;/div&gt;" style="rounded=0;whiteSpace=wrap;html=1;sketch=0;fillColor=#f8cecc;strokeColor=#b85450;" parent="1" vertex="1">
          <mxGeometry x="-30" y="470" width="120" height="60" as="geometry" />
        </mxCell>
        <mxCell id="0HOrwDNYIVravYK2uu_f-134" value="" style="endArrow=classic;startArrow=classic;html=1;rounded=0;exitX=0.75;exitY=1;exitDx=0;exitDy=0;entryX=0.25;entryY=0;entryDx=0;entryDy=0;" parent="1" source="0HOrwDNYIVravYK2uu_f-132" target="0HOrwDNYIVravYK2uu_f-133" edge="1">
          <mxGeometry width="50" height="50" relative="1" as="geometry">
            <mxPoint x="390" y="290" as="sourcePoint" />
            <mxPoint x="440" y="240" as="targetPoint" />
          </mxGeometry>
        </mxCell>
        <mxCell id="0HOrwDNYIVravYK2uu_f-135" value="" style="endArrow=classic;startArrow=classic;html=1;rounded=0;exitX=0.25;exitY=1;exitDx=0;exitDy=0;entryX=0.75;entryY=0;entryDx=0;entryDy=0;" parent="1" source="0HOrwDNYIVravYK2uu_f-105" target="0HOrwDNYIVravYK2uu_f-133" edge="1">
          <mxGeometry width="50" height="50" relative="1" as="geometry">
            <mxPoint x="390" y="290" as="sourcePoint" />
            <mxPoint x="440" y="240" as="targetPoint" />
          </mxGeometry>
        </mxCell>
        <mxCell id="0HOrwDNYIVravYK2uu_f-136" value="" style="endArrow=classic;startArrow=classic;html=1;rounded=0;exitX=1;exitY=0.5;exitDx=0;exitDy=0;entryX=0;entryY=0.5;entryDx=0;entryDy=0;" parent="1" source="0HOrwDNYIVravYK2uu_f-132" target="0HOrwDNYIVravYK2uu_f-105" edge="1">
          <mxGeometry width="50" height="50" relative="1" as="geometry">
            <mxPoint x="390" y="290" as="sourcePoint" />
            <mxPoint x="440" y="240" as="targetPoint" />
          </mxGeometry>
        </mxCell>
        <mxCell id="0HOrwDNYIVravYK2uu_f-137" value="&lt;div&gt;Upload treatments as TaxPub&lt;/div&gt;" style="ellipse;whiteSpace=wrap;html=1;rounded=0;sketch=0;fillColor=#fff2cc;strokeColor=#d6b656;" parent="1" vertex="1">
          <mxGeometry x="480" y="120" width="120" height="80" as="geometry" />
        </mxCell>
        <mxCell id="0HOrwDNYIVravYK2uu_f-138" value="" style="endArrow=classic;html=1;rounded=0;entryX=0.75;entryY=1;entryDx=0;entryDy=0;exitX=0.5;exitY=0;exitDx=0;exitDy=0;" parent="1" source="0HOrwDNYIVravYK2uu_f-137" target="0HOrwDNYIVravYK2uu_f-98" edge="1">
          <mxGeometry width="50" height="50" relative="1" as="geometry">
            <mxPoint x="390" y="290" as="sourcePoint" />
            <mxPoint x="440" y="240" as="targetPoint" />
          </mxGeometry>
        </mxCell>
        <mxCell id="0HOrwDNYIVravYK2uu_f-139" value="&lt;div&gt;ePMC&lt;/div&gt;" style="rounded=0;whiteSpace=wrap;html=1;sketch=0;fillColor=#f8cecc;strokeColor=#b85450;" parent="1" vertex="1">
          <mxGeometry x="610" y="20" width="120" height="60" as="geometry" />
        </mxCell>
        <mxCell id="0HOrwDNYIVravYK2uu_f-140" value="" style="endArrow=classic;html=1;rounded=0;entryX=0;entryY=0.5;entryDx=0;entryDy=0;exitX=1;exitY=0.5;exitDx=0;exitDy=0;" parent="1" source="0HOrwDNYIVravYK2uu_f-98" target="0HOrwDNYIVravYK2uu_f-139" edge="1">
          <mxGeometry width="50" height="50" relative="1" as="geometry">
            <mxPoint x="390" y="290" as="sourcePoint" />
            <mxPoint x="440" y="240" as="targetPoint" />
          </mxGeometry>
        </mxCell>
        <mxCell id="0HOrwDNYIVravYK2uu_f-142" value="&lt;div&gt;Upload Treatments, Figures, Tables&lt;/div&gt;" style="ellipse;whiteSpace=wrap;html=1;rounded=0;sketch=0;fillColor=#fff2cc;strokeColor=#d6b656;" parent="1" vertex="1">
          <mxGeometry x="420" y="350" width="120" height="80" as="geometry" />
        </mxCell>
        <mxCell id="0HOrwDNYIVravYK2uu_f-143" value="&lt;div&gt;Biodiversity Literature Repository&lt;/div&gt;" style="rounded=0;whiteSpace=wrap;html=1;sketch=0;fillColor=#f8cecc;strokeColor=#b85450;" parent="1" vertex="1">
          <mxGeometry x="420" y="480" width="120" height="60" as="geometry" />
        </mxCell>
        <mxCell id="0HOrwDNYIVravYK2uu_f-144" value="" style="endArrow=classic;startArrow=classic;html=1;rounded=0;entryX=0.5;entryY=0;entryDx=0;entryDy=0;" parent="1" source="0HOrwDNYIVravYK2uu_f-103" target="0HOrwDNYIVravYK2uu_f-142" edge="1">
          <mxGeometry width="50" height="50" relative="1" as="geometry">
            <mxPoint x="390" y="290" as="sourcePoint" />
            <mxPoint x="440" y="240" as="targetPoint" />
            <Array as="points">
              <mxPoint x="480" y="340" />
            </Array>
          </mxGeometry>
        </mxCell>
        <mxCell id="0HOrwDNYIVravYK2uu_f-146" value="" style="endArrow=classic;startArrow=classic;html=1;rounded=0;exitX=0.5;exitY=1;exitDx=0;exitDy=0;entryX=0.5;entryY=0;entryDx=0;entryDy=0;" parent="1" source="0HOrwDNYIVravYK2uu_f-142" target="0HOrwDNYIVravYK2uu_f-143" edge="1">
          <mxGeometry width="50" height="50" relative="1" as="geometry">
            <mxPoint x="390" y="290" as="sourcePoint" />
            <mxPoint x="440" y="240" as="targetPoint" />
          </mxGeometry>
        </mxCell>
        <mxCell id="rB2gZijNXzykF5WczqEo-1" value="" style="endArrow=classic;html=1;rounded=0;exitX=1;exitY=0;exitDx=0;exitDy=0;entryX=0;entryY=1;entryDx=0;entryDy=0;" parent="1" source="0HOrwDNYIVravYK2uu_f-118" target="0HOrwDNYIVravYK2uu_f-120" edge="1">
          <mxGeometry width="50" height="50" relative="1" as="geometry">
            <mxPoint x="300" y="310" as="sourcePoint" />
            <mxPoint x="400" y="270" as="targetPoint" />
          </mxGeometry>
        </mxCell>
        <mxCell id="qWljzANbA231Kxc0-_0e-1" value="" style="endArrow=classic;html=1;rounded=0;entryX=1;entryY=0;entryDx=0;entryDy=0;" edge="1" parent="1" target="0HOrwDNYIVravYK2uu_f-128">
          <mxGeometry width="50" height="50" relative="1" as="geometry">
            <mxPoint x="420" y="300" as="sourcePoint" />
            <mxPoint x="450" y="270" as="targetPoint" />
          </mxGeometry>
        </mxCell>
      </root>
    </mxGraphModel>
  </diagram>
</mxfile>
